<svg xmlns="http://www.w3.org/2000/svg" xmlns:xlink="http://www.w3.org/1999/xlink" width="590.065" height="490.87" viewBox="0 0 590.065 490.87"><defs><filter id="a" x="98.628" y="309.347" width="165.021" height="159.275" filterUnits="userSpaceOnUse"><feOffset dx="-2" dy="3" input="SourceAlpha"/><feGaussianBlur stdDeviation="10.5" result="b"/><feFlood flood-opacity="0.161"/><feComposite operator="in" in2="b"/><feComposite in="SourceGraphic"/></filter><filter id="c" x="190.397" y="38.753" width="336.522" height="317.228" filterUnits="userSpaceOnUse"><feOffset dy="3" input="SourceAlpha"/><feGaussianBlur stdDeviation="3" result="d"/><feFlood flood-opacity="0.161"/><feComposite operator="in" in2="d"/><feComposite in="SourceGraphic"/></filter><filter id="e" x="71.899" y="134.481" width="371.559" height="356.389" filterUnits="userSpaceOnUse"><feOffset dx="9" dy="8" input="SourceAlpha"/><feGaussianBlur stdDeviation="19" result="f"/><feFlood flood-opacity="0.161"/><feComposite operator="in" in2="f"/><feComposite in="SourceGraphic"/></filter><filter id="g" x="349.625" y="17.872" width="240.44" height="229.462" filterUnits="userSpaceOnUse"><feOffset dx="-2" dy="3" input="SourceAlpha"/><feGaussianBlur stdDeviation="10.5" result="h"/><feFlood flood-opacity="0.161"/><feComposite operator="in" in2="h"/><feComposite in="SourceGraphic"/></filter><filter id="i" x="376.238" y="0" width="152.122" height="147.348" filterUnits="userSpaceOnUse"><feOffset dx="-2" dy="3" input="SourceAlpha"/><feGaussianBlur stdDeviation="10.5" result="j"/><feFlood flood-opacity="0.161"/><feComposite operator="in" in2="j"/><feComposite in="SourceGraphic"/></filter></defs><g transform="translate(-1105.099 -335.558)"><g transform="matrix(1, 0, 0, 1, 1105.1, 335.56)" filter="url(#a)"><path d="M4727.188,648.556l12.553-4.05,24.486-25.137,35.6-36.542,22.045-22.631-11.181,4.073Z" transform="matrix(1, 0.09, -0.09, 1, -4520.55, -632.22)" fill="#54de62"/></g><g transform="matrix(1, 0, 0, 1, 1105.1, 335.56)" filter="url(#c)"><path d="M4727.188,834.7l39.2-12.581L4954.054,630.5l68.857-70.305-34.924,12.654Z" transform="matrix(1, 0.09, -0.09, 1, -4437.05, -925.31)" fill="#54de62"/></g><path d="M4727.188,721.78l22.037-7.406,105.492-112.793,38.705-41.385-28.969,12.8Z" transform="translate(-3498.89 -489.557) rotate(7)" fill="#54de62"/><g transform="matrix(1, 0, 0, 1, 1105.1, 335.56)" filter="url(#e)"><path d="M4727.188,782.594l31.7-10.193L4910.6,617.158l55.669-56.961-28.235,10.253Z" transform="matrix(1, 0.09, -0.09, 1, -4521.09, -786.59)" fill="#54de62"/></g><g transform="matrix(1, 0, 0, 1, 1105.1, 335.56)" filter="url(#g)"><path d="M4727.188,712.88l21.845-7L4853.584,599.3l38.363-39.106-19.458,7.039Z" transform="matrix(1, 0.09, -0.09, 1, -4263.94, -923.69)" fill="#54de62"/></g><g transform="matrix(1, 0, 0, 1, 1105.1, 335.56)" filter="url(#i)"><path d="M4727.189,637.633l10.963-3.549,21.385-22.029,31.086-32.025,19.254-19.833-9.765,3.57Z" transform="matrix(1, 0.09, -0.09, 1, -4243.89, -941.57)" fill="#54de62"/></g></g></svg>